M48
; DRILL file {KiCad 9.0.6} date 2025-11-28T18:30:42+0300
; FORMAT={-:-/ absolute / inch / decimal}
; #@! TF.CreationDate,2025-11-28T18:30:42+03:00
; #@! TF.GenerationSoftware,Kicad,Pcbnew,9.0.6
; #@! TF.FileFunction,Plated,1,2,PTH
FMAT,2
INCH
; #@! TA.AperFunction,Plated,PTH,ViaDrill
T1C0.0118
; #@! TA.AperFunction,Plated,PTH,ComponentDrill
T2C0.0394
%
G90
G05
T1
X0.0413Y0.9744
X0.0512Y0.1457
X0.0669Y0.2441
X0.128Y0.1752
X0.2293Y0.3474
X0.2539Y0.6614
X0.2756Y0.1752
X0.4409Y0.1752
X0.5591Y0.6457
X0.565Y0.4075
X0.624Y1.0236
X0.626Y0.6417
X0.7106Y0.8268
X0.8209Y0.498
X0.8215Y0.6616
X0.8602Y0.0453
X0.8898Y1.061
X0.9439Y0.8839
X0.9449Y0.628
X0.9764Y0.2795
X0.9843Y1.1752
X1.0Y0.626
X1.0157Y0.4921
X1.0256Y0.9547
X1.027Y0.743
X1.063Y0.1831
X1.128Y0.1772
X1.1339Y1.0177
X1.1594Y0.7894
X1.1673Y0.6732
X1.1699Y0.7449
X1.2028Y0.7047
X1.2382Y0.8563
X1.2598Y1.1102
X1.315Y0.1811
X1.3386Y0.75
X1.4567Y0.5935
X1.4606Y0.7205
X1.8268Y0.0453
X1.8346Y0.8819
X1.8425Y0.626
X1.8484Y1.128
T2
X0.9469Y0.4075
X1.1437Y0.4075
X1.3878Y0.4193
X1.5846Y0.4193
X1.7343Y0.6969
X1.8701Y0.2638
X1.8701Y0.1654
X1.9311Y0.7953
X1.9311Y0.5984
M30
